<svg width="715" height="715" viewBox="0 0 715 715" fill="none" xmlns="http://www.w3.org/2000/svg">
<circle cx="357.5" cy="357.5" r="357.5" fill="white"/>
<path d="M358 642.5C515.125 642.5 642.5 515.125 642.5 358C642.5 200.875 515.125 73.5 358 73.5C200.875 73.5 73.5 200.875 73.5 358C73.5 515.125 200.875 642.5 358 642.5Z" stroke="#FFFDF3" stroke-width="4.975" stroke-miterlimit="10"/>
<path d="M113.5 500.5C111 502 110 505.5 111.5 508C195 642 374 684.5 511.5 603.5C649 522 693 347.5 609.5 213.5C608 211 604.5 210 601.5 211.5L113.5 500.5Z" fill="#87C644"/>
<path d="M146.5 490C143.5 491.5 143 495 144.5 498C220 611.5 375 647 494.5 576C614 505.5 653.5 355.5 585 237.5C583.5 235 580 234 577 235.5L146.5 490Z" fill="#FFFDF3"/>
<path d="M338 381.5L188 470C177 476.5 174.5 491 182.5 500.5C207.5 531 239.5 553 275 566.5C287 571 300 564 303 552L344.5 386C346 382.5 341.5 379.5 338 381.5Z" fill="#87C644"/>
<path d="M393.5 357.5L564 398C576.5 401 588.5 392.5 590 380.5C594 343.5 588.5 305.5 572.5 270C567.5 258.5 553 254 542 260.5L392 349C389 351.5 389.5 356.5 393.5 357.5Z" fill="#87C644"/>
<path d="M385.5 379.5L476.5 525.5C483 536 498 538.5 508 531C539 506.5 562 475.5 575.5 441C580 429.5 573 416.5 561 413.5L390.5 372.5C386.5 371.5 383.5 376 385.5 379.5Z" fill="#87C644"/>
<path d="M361.5 389.5L320 555.5C317 567.5 325.5 579.5 338 581C376 585 415 579.5 451 564C462.5 559 467 545 460.5 534.5L370 388.5C368 385 362.5 385.5 361.5 389.5Z" fill="#87C644"/>
<path d="M358 73.5H362C438 74.5 509 105 562 159.5C615 214 643.5 285.5 642.5 361.5C640.5 516.5 513 642.5 358 642.5H354C278 641.5 207 611 154 556.5C101 502 72.5 430.5 73.5 354.5C75.5 199.5 203 73.5 358 73.5ZM358 36.5C182.5 36.5 39 177.5 36.5 354C34 531.5 176 677 353.5 679.5C355 679.5 356.5 679.5 357.5 679.5C533 679.5 676.5 538.5 679 362C681.5 184.5 539.5 39 362 36.5C360.5 36.5 359.5 36.5 358 36.5Z" fill="#231F20"/>
<path fill-rule="evenodd" clip-rule="evenodd" d="M361.5 620.5L288 514.5L348.5 173.5L365.5 174H382L436.5 516L361.5 620.5Z" fill="#241F1C"/>
<path fill-rule="evenodd" clip-rule="evenodd" d="M305.5 151.5L304.5 151C305 151.5 305 151.5 305.5 151.5Z" fill="#241F1C"/>
<path fill-rule="evenodd" clip-rule="evenodd" d="M426.5 152L425 154L424.5 153C425 153 425.5 152.5 426.5 152Z" fill="#241F1C"/>
<path fill-rule="evenodd" clip-rule="evenodd" d="M366 113.5H337.5L325 129.5L348.5 164.5L365.5 165H382L406.5 130.5L394 114L366 113.5Z" fill="#241F1C"/>
<path fill-rule="evenodd" clip-rule="evenodd" d="M319 126L259 90L276 69L331.5 109.5L319 126Z" fill="#241F1C"/>
<path fill-rule="evenodd" clip-rule="evenodd" d="M412.5 127L473 91.5L456.5 71L400 110L412.5 127Z" fill="#241F1C"/>
</svg>
